<svg width="64" height="83" viewBox="0 0 64 83" fill="none" xmlns="http://www.w3.org/2000/svg">
<path d="M56.4583 0.708603H19.375C15.2958 0.708603 11.9583 4.0461 11.9583 8.12527V19.2503H19.375V11.8336H56.4583V71.1669H19.375V63.7503H11.9583V74.8753C11.9583 78.9544 15.2958 82.2919 19.375 82.2919H56.4583C60.5375 82.2919 63.875 78.9544 63.875 74.8753V8.12527C63.875 4.0461 60.5375 0.708603 56.4583 0.708603ZM26.05 37.7919V32.2294C26.05 27.0378 20.8583 22.9586 15.6666 22.9586C10.475 22.9586 5.28331 27.0378 5.28331 32.2294V37.7919C3.05831 37.7919 0.833313 40.0169 0.833313 42.2419V55.2211C0.833313 57.8169 3.05831 60.0419 5.28331 60.0419H25.6791C28.275 60.0419 30.5 57.8169 30.5 55.5919V42.6128C30.5 40.0169 28.275 37.7919 26.05 37.7919ZM21.2291 37.7919H10.1041V32.2294C10.1041 29.2628 12.7 27.4086 15.6666 27.4086C18.6333 27.4086 21.2291 29.2628 21.2291 32.2294V37.7919Z" fill="#0166F6"/>
</svg>
