<svg width="80" height="80" viewBox="0 0 80 80" fill="none" xmlns="http://www.w3.org/2000/svg">
<path d="M39.5708 0C17.7277 0 0 17.7277 0 39.5708C0 61.4138 17.7277 79.1415 39.5708 79.1415C61.4138 79.1415 79.1415 61.4138 79.1415 39.5708C79.1415 17.7277 61.4138 0 39.5708 0ZM39.5708 71.2274C22.1201 71.2274 7.91415 57.0215 7.91415 39.5708C7.91415 22.1201 22.1201 7.91415 39.5708 7.91415C57.0215 7.91415 71.2274 22.1201 71.2274 39.5708C71.2274 57.0215 57.0215 71.2274 39.5708 71.2274ZM43.0926 36.0094C36.049 33.6747 32.6459 32.2106 32.6459 28.4909C32.6459 24.4547 37.0382 22.9906 39.8082 22.9906C44.992 22.9906 46.8914 26.9081 47.3266 28.2931L53.5788 25.6419C52.9853 23.9007 50.334 18.0838 43.053 16.8176V11.8712H36.1281V16.8571C25.8397 19.0731 25.7606 28.1348 25.7606 28.5701C25.7606 37.5527 34.664 40.0852 39.0168 41.668C45.269 43.884 48.0389 45.9021 48.0389 49.7009C48.0389 54.1724 43.884 56.0718 40.2039 56.0718C33.002 56.0718 30.9443 48.672 30.7069 47.8015L24.1382 50.4527C26.6311 59.1187 33.1603 61.4534 36.0885 62.1657V67.2703H43.0134V62.3635C45.0711 62.0074 54.9638 60.0289 54.9638 49.6217C55.0034 44.1214 52.5896 39.2938 43.0926 36.0094Z" fill="#0166F6"/>
</svg>
