<svg width="79" height="79" viewBox="0 0 79 79" fill="none" xmlns="http://www.w3.org/2000/svg">
<path d="M57.4512 43.45C60.4126 43.45 63.0186 41.8305 64.3611 39.3815L78.4968 13.746C79.9578 11.139 78.0625 7.9 75.0616 7.9H16.6233L12.9117 0H0V7.9H7.89707L22.1118 37.8805L16.7813 47.5185C13.8988 52.8115 17.6894 59.25 23.6912 59.25H71.0736V51.35H23.6912L28.0346 43.45H57.4512ZM20.3744 15.8H68.3491L57.4512 35.55H29.7325L20.3744 15.8ZM23.6912 63.2C19.3478 63.2 15.8336 66.755 15.8336 71.1C15.8336 75.445 19.3478 79 23.6912 79C28.0346 79 31.5883 75.445 31.5883 71.1C31.5883 66.755 28.0346 63.2 23.6912 63.2ZM63.1765 63.2C58.8332 63.2 55.319 66.755 55.319 71.1C55.319 75.445 58.8332 79 63.1765 79C67.5199 79 71.0736 75.445 71.0736 71.1C71.0736 66.755 67.5199 63.2 63.1765 63.2Z" fill="#0166F6"/>
</svg>
